<svg width="58" height="24" viewBox="0 0 58 24" fill="none" xmlns="http://www.w3.org/2000/svg">
<path d="M0 11.9665C0 11.8285 0.111929 11.7165 0.25 11.7165H3.22656C4.74219 11.7165 5.83854 11.9431 6.51562 12.3962C7.19271 12.8493 7.53125 13.5655 7.53125 14.5446C7.53125 15.2217 7.34115 15.7816 6.96094 16.2243C6.58594 16.6618 6.03646 16.9457 5.3125 17.0759V17.154C7.04688 17.4509 7.91406 18.3624 7.91406 19.8884C7.91406 20.9092 7.56771 21.7061 6.875 22.279C6.1875 22.8519 5.22396 23.1384 3.98438 23.1384H0.25C0.111929 23.1384 0 23.0265 0 22.8884V11.9665ZM1.32812 16.6071H3.51562C4.45312 16.6071 5.1276 16.4613 5.53906 16.1696C5.95052 15.8728 6.15625 15.3754 6.15625 14.6775C6.15625 14.0368 5.92708 13.5759 5.46875 13.2946C5.01042 13.0082 4.28125 12.865 3.28125 12.865H1.32812V16.6071ZM1.32812 17.7321V22.0056H3.71094C4.63281 22.0056 5.32552 21.8285 5.78906 21.4743C6.25781 21.115 6.49219 20.5551 6.49219 19.7946C6.49219 19.0863 6.2526 18.5655 5.77344 18.2321C5.29948 17.8988 4.57552 17.7321 3.60156 17.7321H1.32812Z" fill="#E08639"/>
<path d="M16.8443 20.0993C16.8443 21.1045 16.4797 21.8884 15.7506 22.4509C15.0214 23.0134 14.0318 23.2946 12.7818 23.2946C11.5141 23.2946 10.5203 23.1417 9.80037 22.8359C9.71177 22.7983 9.65681 22.71 9.65681 22.6137V21.8669C9.65681 21.688 9.83953 21.5665 10.0077 21.6275C10.3773 21.7617 10.7708 21.8721 11.1881 21.9587C11.7401 22.0733 12.287 22.1306 12.8287 22.1306C13.7141 22.1306 14.3808 21.9639 14.8287 21.6306C15.2766 21.292 15.5006 20.8233 15.5006 20.2243C15.5006 19.8285 15.4198 19.5056 15.2584 19.2556C15.1021 19.0004 14.8365 18.766 14.4615 18.5525C14.0917 18.3389 13.5266 18.0967 12.7662 17.8259C11.7037 17.4457 10.9433 16.9952 10.4849 16.4743C10.0318 15.9535 9.80525 15.2738 9.80525 14.4353C9.80525 13.5551 10.136 12.8545 10.7974 12.3337C11.4589 11.8129 12.3339 11.5525 13.4224 11.5525C14.4729 11.5525 15.4454 11.7308 16.3398 12.0874C16.4619 12.1361 16.5208 12.2735 16.4765 12.3973L16.2301 13.0854C16.1818 13.2203 16.0302 13.2867 15.8965 13.2352C15.0396 12.905 14.2046 12.74 13.3912 12.74C12.6881 12.74 12.1386 12.891 11.7428 13.1931C11.3469 13.4952 11.149 13.9144 11.149 14.4509C11.149 14.8467 11.2219 15.1723 11.3678 15.4275C11.5136 15.6775 11.7584 15.9092 12.1021 16.1228C12.4511 16.3311 12.9823 16.5629 13.6959 16.8181C14.8938 17.2452 15.7167 17.7035 16.1646 18.1931C16.6178 18.6827 16.8443 19.3181 16.8443 20.0993Z" fill="#E08639"/>
<path d="M28.3214 17.3181C28.3214 19.2035 27.8084 20.6462 26.7824 21.6462C25.7615 22.641 24.2902 23.1384 22.3683 23.1384H19.4543C19.3162 23.1384 19.2043 23.0265 19.2043 22.8884V11.9665C19.2043 11.8285 19.3162 11.7165 19.4543 11.7165H22.7043C24.4803 11.7165 25.8605 12.2087 26.8449 13.1931C27.8293 14.1775 28.3214 15.5525 28.3214 17.3181ZM26.9152 17.365C26.9152 15.8754 26.5402 14.753 25.7902 13.9978C25.0454 13.2426 23.936 12.865 22.4621 12.865H20.5324V21.99H22.1496C23.7329 21.99 24.923 21.6019 25.7199 20.8259C26.5168 20.0446 26.9152 18.891 26.9152 17.365Z" fill="#E08639"/>
<path d="M34.4157 22.8884C34.4157 23.0265 34.3038 23.1384 34.1657 23.1384H33.3376C33.1995 23.1384 33.0876 23.0265 33.0876 22.8884V12.8962H29.7204C29.5824 12.8962 29.4704 12.7843 29.4704 12.6462V11.9665C29.4704 11.8285 29.5824 11.7165 29.7204 11.7165H37.7829C37.921 11.7165 38.0329 11.8285 38.0329 11.9665V12.6462C38.0329 12.7843 37.921 12.8962 37.7829 12.8962H34.4157V22.8884Z" fill="#005F96"/>
<path d="M47.1338 23.1384C47.0309 23.1384 46.9385 23.0753 46.901 22.9795L45.5413 19.5056H40.9632L39.6188 22.9786C39.5815 23.0749 39.4889 23.1384 39.3856 23.1384H38.5803C38.404 23.1384 38.2831 22.9608 38.3477 22.7968L42.6664 11.8281C42.7041 11.7325 42.7963 11.6696 42.8991 11.6696H43.6754C43.7783 11.6696 43.8707 11.7327 43.9082 11.8285L48.2045 22.7972C48.2688 22.9612 48.1479 23.1384 47.9718 23.1384H47.1338ZM45.1272 18.3103L43.7991 14.7712C43.6272 14.3233 43.4502 13.7738 43.2679 13.1228C43.1533 13.6228 42.9892 14.1723 42.7757 14.7712L41.4319 18.3103H45.1272Z" fill="#005F96"/>
<path d="M56.7969 11.4769C56.9349 11.4769 57.0469 11.5888 57.0469 11.7269V12.075C57.0469 12.2017 56.9521 12.3084 56.8262 12.3233L55.4609 12.4847C55.6068 12.667 55.737 12.9066 55.8516 13.2034C55.9661 13.4951 56.0234 13.8258 56.0234 14.1956C56.0234 15.0342 55.737 15.7034 55.1641 16.2034C54.5911 16.7034 53.8047 16.9534 52.8047 16.9534C52.5495 16.9534 52.3099 16.9326 52.0859 16.8909C51.5339 17.1826 51.2578 17.5498 51.2578 17.9925C51.2578 18.2269 51.3542 18.4014 51.5469 18.5159C51.7396 18.6253 52.0703 18.68 52.5391 18.68H54.0547C54.9818 18.68 55.6927 18.8753 56.1875 19.2659C56.6875 19.6566 56.9375 20.2243 56.9375 20.9691C56.9375 21.917 56.5573 22.6383 55.7969 23.1331C55.0365 23.6331 53.9271 23.8831 52.4688 23.8831C51.349 23.8831 50.4844 23.6748 49.875 23.2581C49.2708 22.8415 48.9688 22.2529 48.9688 21.4925C48.9688 20.9717 49.1354 20.5212 49.4688 20.1409C49.8021 19.7607 50.2708 19.5029 50.875 19.3675C50.6562 19.2685 50.4714 19.1149 50.3203 18.9066C50.1745 18.6982 50.1016 18.456 50.1016 18.18C50.1016 17.8675 50.1849 17.5941 50.3516 17.3597C50.5182 17.1253 50.7812 16.8988 51.1406 16.68C50.6979 16.4977 50.3359 16.1878 50.0547 15.7503C49.7786 15.3128 49.6406 14.8128 49.6406 14.2503C49.6406 13.3128 49.9219 12.5915 50.4844 12.0863C51.0469 11.5758 51.8438 11.3206 52.875 11.3206C53.3229 11.3206 53.7266 11.3727 54.0859 11.4769H56.7969ZM50.2188 21.4769C50.2188 21.9404 50.4141 22.292 50.8047 22.5316C51.1953 22.7712 51.7552 22.8909 52.4844 22.8909C53.5729 22.8909 54.3776 22.7269 54.8984 22.3988C55.4245 22.0758 55.6875 21.6357 55.6875 21.0784C55.6875 20.6149 55.5443 20.292 55.2578 20.1097C54.9714 19.9326 54.4323 19.8441 53.6406 19.8441H52.0859C51.4974 19.8441 51.0391 19.9847 50.7109 20.2659C50.3828 20.5472 50.2188 20.9508 50.2188 21.4769ZM50.9219 14.2191C50.9219 14.818 51.0911 15.2712 51.4297 15.5784C51.7682 15.8857 52.2396 16.0394 52.8438 16.0394C54.1094 16.0394 54.7422 15.4248 54.7422 14.1956C54.7422 12.9092 54.1016 12.2659 52.8203 12.2659C52.2109 12.2659 51.7422 12.43 51.4141 12.7581C51.0859 13.0863 50.9219 13.5732 50.9219 14.2191Z" fill="#0FB555"/>
<rect width="17.1203" height="7.39652" rx="0.25" fill="#E08639"/>
<rect x="22.0881" width="14.718" height="7.39652" rx="0.25" fill="#005F96"/>
<rect x="41.7739" width="15.273" height="7.39652" rx="0.25" fill="#0FB555"/>
</svg>
